{"accessors" : [{"bufferView" : 0, "byteOffset" : 0, "componentType" : 5123, "count" : 65688, "type" : "SCALAR", "max" : [15297], "min" : [0]}, {"bufferView" : 1, "byteOffset" : 0, "componentType" : 5126, "count" : 15298, "type" : "VEC3", "max" : [25.4599990844727, 24.2310009002686, 27.5], "min" : [-41.2789993286133, -41.7379989624023, 1]}, {"bufferView" : 1, "byteOffset" : 12, "componentType" : 5126, "count" : 15298, "type" : "VEC4", "max" : [0.886274516582489, 0.807843148708344, 0.858823537826538, 1], "min" : [0.286274522542953, 0.180392161011696, 0.415686279535294, 1]}], "asset" : {"generator" : "Aspose.3D 20.2.1", "version" : "2.0"}, "buffers" : [{"uri" : "buffer.bin", "byteLength" : 559728}], "bufferViews" : [{"buffer" : 0, "byteOffset" : 0, "byteLength" : 131376, "target" : 34963}, {"buffer" : 0, "byteOffset" : 131380, "byteLength" : 428344, "byteStride" : 28, "target" : 34962}], "materials" : [{"pbrMetallicRoughness" : {"baseColorFactor" : [1, 1, 1, 1], "metallicFactor" : 0.5, "roughnessFactor" : 0.5}, "emissiveFactor" : [0, 0, 0], "alphaMode" : "OPAQUE", "doubleSided" : false}], "meshes" : [{"primitives" : [{"attributes" : {"POSITION" : 1, "COLOR" : 2}, "indices" : 0, "material" : 0, "mode" : 4}]}], "nodes" : [{"mesh" : 0, "name" : "Mesh_Mesh_head_geo.001_lambert2SG.001"}, {"children" : [0], "matrix" : [1, 0, 0, 0, 0, 2.22044604925031E-16, -1, 0, 0, 1, 2.22044604925031E-16, 0, 0, 0, 0, 1]}], "scene" : 0, "scenes" : [{"nodes" : [1]}]}